<?xml version="1.0" encoding="utf-8"?>
<!-- Generator: Adobe Illustrator 21.1.0, SVG Export Plug-In . SVG Version: 6.00 Build 0)  -->
<svg version="1.1" id="Layer_1" xmlns="http://www.w3.org/2000/svg" xmlns:xlink="http://www.w3.org/1999/xlink" x="0px" y="0px"
	 viewBox="0 0 160 160" style="enable-background:new 0 0 160 160;" xml:space="preserve">
<style type="text/css">
	.st0{fill:#919192;}
</style>
<path class="st0" d="M131.3,119.7c-0.7-0.9-1.6-2-2.4-3c1.6-7.3,2-16,1.1-25.9c-0.6-6.6-1.7-13.6-3.3-20.7c3.4-4.1,6.7-7.9,9.5-10.7
	l3-2.9l-1-4.1l-1.2-4.8l-2.2-8.7l-8.1,4c-0.1,0-3,1.5-7.3,3.9c-5.2-12.5-12-23.2-20.1-28.6c-11.7-8-26.9-8-38.6,0
	c-8.1,5.5-14.9,16.1-20.1,28.6c-4.3-2.5-7.2-3.9-7.3-3.9l-8.1-4L23,47.5l-1.2,4.8l-1,4.1l3,2.9c2.8,2.8,6.1,6.6,9.5,10.7
	c-1.6,7.1-2.7,14.1-3.3,20.7c-0.8,9.9-0.4,18.6,1.1,25.9c-0.9,1.1-1.7,2.1-2.4,3c-2.2,2.8-4.5,5.7-5.1,6.3l-2.8,2.8l1,4.1l1.3,4.9
	l2.4,9.4l8.4-4.8c1.5-0.9,4.7-3,8.7-5.7c9.5,7.5,23.5,11.2,37.5,11.2c14,0,28.1-3.8,37.5-11.2c4,2.8,7.2,4.9,8.7,5.7l8.4,4.8
	l2.4-9.4l1.3-4.9l1-4.1l-2.8-2.8C135.8,125.3,133.6,122.5,131.3,119.7z M122.5,91.4c0.5,6.3,0.5,12.1,0,17.2
	c-4.4-5.5-9.2-11.3-13.3-16c0.8-1,2-2.5,3.7-4.8c2.1-2.7,4.8-6.3,7.7-10.1C121.5,82.3,122.2,86.9,122.5,91.4z M37.5,91.4
	c0.4-4.5,1-9.1,1.9-13.7c2.9,3.8,5.6,7.3,7.7,10.1c1.7,2.3,2.9,3.8,3.7,4.8c-4.1,4.7-8.9,10.6-13.3,16
	C36.9,103.5,36.9,97.7,37.5,91.4z M129.9,136c0,0-3.1-1.4-7.8-3.7c-1.1-0.5-2.3-1.1-3.5-1.7c-1.1-0.6-2.3-1.1-3.5-1.8
	c-8.6-4.3-19.3-9.9-27.3-14.8c6.2,5.4,15.4,12.3,23.3,18c-16.2,11.2-45.9,11.2-62.1,0c8-5.7,17.1-12.6,23.3-18
	c-8,4.9-18.7,10.5-27.3,14.8c-1.2,0.6-2.4,1.2-3.5,1.8c-1.2,0.6-2.4,1.2-3.5,1.7c-4.7,2.3-7.8,3.7-7.8,3.7l-1.3-4.9
	c0.4-0.4,2.2-2.7,4.8-6c0.8-1,1.7-2.2,2.7-3.4c0.9-1.1,1.8-2.3,2.8-3.6c5.9-7.4,13.1-16.4,18.1-21.9c0,0,0,0,0,0
	c1.7-2,1.8-4.9,0.1-6.9c0-0.1-0.1-0.1-0.1-0.2c-0.8-0.9-3.6-4.6-7.2-9.4c-0.6-0.8-1.2-1.6-1.9-2.5c-2.1-2.7-4.4-5.7-6.8-8.7
	c-1-1.2-1.9-2.4-2.9-3.6c0,0,0,0,0,0c-1-1.2-2-2.4-2.9-3.5c-0.1-0.1-0.2-0.3-0.4-0.4c-0.7-0.9-1.5-1.7-2.2-2.5
	c-0.7-0.8-1.4-1.6-2.1-2.3c-0.7-0.7-1.3-1.4-2-2l1.2-4.8h0c0,0,0,0,0,0c0.6,0.3,3.6,1.7,8,3.8c1.1,0.5,2.2,1.1,3.5,1.7
	c1.1,0.5,2.2,1.1,3.4,1.7c8.9,4.4,19.9,10.1,27.9,15.1c-7.3-8.4-17.5-15.8-25.7-21c5-12.2,11.3-22,17.7-26.4
	c4.5-3.1,9.8-4.6,15.1-4.6c5.3,0,10.6,1.5,15.1,4.6c6.4,4.4,12.7,14.1,17.7,26.4c-8.2,5.2-18.4,12.5-25.7,21
	c8.1-5.1,19.1-10.8,27.9-15.1c1.2-0.6,2.3-1.1,3.4-1.7c1.2-0.6,2.4-1.2,3.5-1.7c4.4-2.1,7.5-3.5,8-3.8l1.2,4.8c-2,2-4.3,4.5-6.6,7.2
	c-1,1.1-2,2.3-2.9,3.5c-1,1.2-2,2.4-2.9,3.6c-3.1,3.9-6.1,7.8-8.7,11.2c-0.6,0.8-1.2,1.6-1.8,2.3c-0.8,1.1-1.6,2.1-2.3,3
	c-0.2,0.3-0.4,0.6-0.7,0.9c-1.3,1.6-2.1,2.8-2.6,3.3c0,0,0,0.1-0.1,0.1c-1.8,2-1.7,5,0.1,7c0,0,0,0,0,0c5,5.6,12.2,14.5,18.1,21.9
	c1,1.2,1.9,2.4,2.8,3.6c1,1.2,1.9,2.4,2.7,3.4c2.6,3.3,4.5,5.6,4.8,6L129.9,136z"/>
</svg>
